grf
version=1
nRows=14
nColumns=37
inDegrees=no
endheader
time	ground_force_1_vx	ground_force_1_vy	ground_force_1_vz	ground_force_1_px	ground_force_1_py	ground_force_1_pz	ground_moment_1_mx	ground_moment_1_my	ground_moment_1_mz	ground_force_2_vx	ground_force_2_vy	ground_force_2_vz	ground_force_2_px	ground_force_2_py	ground_force_2_pz	ground_moment_2_mx	ground_moment_2_my	ground_moment_2_mz	ground_force_3_vx	ground_force_3_vy	ground_force_3_vz	ground_force_3_px	ground_force_3_py	ground_force_3_pz	ground_moment_3_mx	ground_moment_3_my	ground_moment_3_mz	ground_force_4_vx	ground_force_4_vy	ground_force_4_vz	ground_force_4_px	ground_force_4_py	ground_force_4_pz	ground_moment_4_mx	ground_moment_4_my	ground_moment_4_mz
      4.84000000	      0.00000000	     -0.00000000	      0.00000000	      0.00000000	      0.00000000	      0.00000000	      0.00000000	      0.00000000	      0.00000000	    -62.64485168	    126.33859253	  -1025.75585938	   -161.45280824	  -1110.02070691	      0.00000000	      0.00000000	      0.00000000	   5789.58540671	    -40.23422808	   -152.13912612	   -800.45465088	   -168.60287477	   -637.48802981	      0.00000000	      0.00000000	     -0.00000000	  -7246.87706923	      0.00000000	     -0.00000000	      0.00000000	      0.00000000	      0.00000000	      0.00000000	      0.00000000	      0.00000000	      0.00000000
      4.85000000	      0.00000000	     -0.00000000	      0.00000000	      0.00000000	      0.00000000	      0.00000000	      0.00000000	      0.00000000	      0.00000000	    -60.99909592	    120.63278198	   -963.87896729	   -160.91141414	  -1110.98070844	      0.00000000	      0.00000000	      0.00000000	   4102.83856435	    -40.47283594	   -135.44868115	   -730.23907471	   -167.33904284	   -637.32053492	      0.00000000	     -0.00000000	     -0.00000000	  -6998.63042542	      0.00000000	     -0.00000000	      0.00000000	      0.00000000	      0.00000000	      0.00000000	      0.00000000	      0.00000000	      0.00000000
      4.86000000	      0.00000000	     -0.00000000	      0.00000000	      0.00000000	      0.00000000	      0.00000000	      0.00000000	      0.00000000	      0.00000000	    -56.63069153	    114.96757507	   -902.20330811	   -160.58610231	  -1111.32551928	      0.00000000	      0.00000000	      0.00000000	   2573.02386982	    -35.34912016	   -120.22682644	   -660.18731689	   -166.62618634	   -636.30427378	      0.00000000	      0.00000000	     -0.00000000	  -6862.65257132	      0.00000000	     -0.00000000	      0.00000000	      0.00000000	      0.00000000	      0.00000000	      0.00000000	      0.00000000	      0.00000000
      4.87000000	      0.00000000	     -0.00000000	      0.00000000	      0.00000000	      0.00000000	      0.00000000	      0.00000000	      0.00000000	      0.00000000	    -52.13809967	    107.99779510	   -836.12353516	   -158.74833229	  -1111.38125160	      0.00000000	      0.00000000	      0.00000000	   1637.96475525	    -28.37007320	   -107.76319637	   -587.28948975	   -164.71811168	   -634.29769745	      0.00000000	      0.00000000	     -0.00000000	  -5962.93104202	      0.00000000	     -0.00000000	      0.00000000	      0.00000000	      0.00000000	      0.00000000	      0.00000000	      0.00000000	      0.00000000
      4.88000000	      0.00000000	     -0.00000000	      0.00000000	      0.00000000	      0.00000000	      0.00000000	      0.00000000	      0.00000000	      0.00000000	    -49.22747421	    101.88719177	   -770.35168457	   -156.23539624	  -1112.96166238	      0.00000000	      0.00000000	      0.00000000	   1094.13962007	    -21.65649506	    -97.83277704	   -522.46136475	   -163.42360428	   -632.48567953	      0.00000000	      0.00000000	     -0.00000000	  -5147.02553854	      0.00000000	     -0.00000000	      0.00000000	      0.00000000	      0.00000000	      0.00000000	      0.00000000	      0.00000000	      0.00000000
      4.89000000	      0.00000000	     -0.00000000	      0.00000000	      0.00000000	      0.00000000	      0.00000000	      0.00000000	      0.00000000	      0.00000000	    -46.25658798	     96.22195435	   -700.97949219	   -152.21634348	  -1113.87829391	      0.00000000	      0.00000000	     -0.00000000	    391.10481397	    -13.12435367	    -90.27117042	   -466.94897461	   -160.49375647	   -629.31656334	      0.00000000	      0.00000000	     -0.00000000	  -4017.03982214	      0.00000000	     -0.00000000	      0.00000000	      0.00000000	      0.00000000	      0.00000000	      0.00000000	      0.00000000	      0.00000000
      4.90000000	      0.00000000	     -0.00000000	      0.00000000	      0.00000000	      0.00000000	      0.00000000	      0.00000000	      0.00000000	      0.00000000	    -41.99092484	     91.52129364	   -634.54052734	   -146.98582497	  -1115.51319429	      0.00000000	      0.00000000	     -0.00000000	     35.95631071	     -5.62324627	    -82.74185132	   -416.97744751	   -157.17954781	   -627.05498303	      0.00000000	      0.00000000	      0.00000000	  -2915.96303585	      0.00000000	     -0.00000000	      0.00000000	      0.00000000	      0.00000000	      0.00000000	      0.00000000	      0.00000000	      0.00000000
      4.91000000	      0.00000000	     -0.00000000	      0.00000000	      0.00000000	      0.00000000	      0.00000000	      0.00000000	      0.00000000	      0.00000000	    -37.67047501	     87.43369293	   -569.51324463	   -141.57964185	  -1117.72241932	      0.00000000	      0.00000000	     -0.00000000	   -423.51672170	     -0.87205649	    -75.08509819	   -367.03747559	   -151.85252812	   -624.30875279	      0.00000000	      0.00000000	     -0.00000000	  -1752.54126786	      0.00000000	     -0.00000000	      0.00000000	      0.00000000	      0.00000000	      0.00000000	      0.00000000	      0.00000000	      0.00000000
      4.92000000	      0.00000000	     -0.00000000	      0.00000000	      0.00000000	      0.00000000	      0.00000000	      0.00000000	      0.00000000	      0.00000000	    -31.82167816	     84.20178223	   -511.49114990	   -136.34996052	  -1119.97058723	      0.00000000	      0.00000000	     -0.00000000	   -627.63422973	      4.86710207	    -66.33912701	   -321.16284180	   -148.08058760	   -620.58387944	      0.00000000	      0.00000000	     -0.00000000	   -791.07823105	      0.00000000	     -0.00000000	      0.00000000	      0.00000000	      0.00000000	      0.00000000	      0.00000000	      0.00000000	      0.00000000
      4.93000000	      0.00000000	     -0.00000000	      0.00000000	      0.00000000	      0.00000000	      0.00000000	      0.00000000	      0.00000000	      0.00000000	    -26.30330276	     81.52822113	   -457.97097778	   -131.41509848	  -1120.70719327	      0.00000000	      0.00000000	     -0.00000000	  -1353.11901894	     11.67316228	    -56.55021007	   -278.46621704	   -145.52731018	   -619.08382341	      0.00000000	      0.00000000	     -0.00000000	   -223.56256626	      0.00000000	     -0.00000000	      0.00000000	      0.00000000	      0.00000000	      0.00000000	      0.00000000	      0.00000000	      0.00000000
      4.94000000	      0.00000000	     -0.00000000	      0.00000000	      0.00000000	      0.00000000	      0.00000000	      0.00000000	      0.00000000	      0.00000000	    -21.24462509	     77.07200623	   -412.71249390	   -128.51621638	  -1123.86054954	      0.00000000	      0.00000000	     -0.00000000	  -1548.75576970	     18.90870055	    -48.09734510	   -241.56054688	   -145.38773618	   -618.58947495	      0.00000000	      0.00000000	      0.00000000	    351.41471440	      0.00000000	     -0.00000000	      0.00000000	      0.00000000	      0.00000000	      0.00000000	      0.00000000	      0.00000000	      0.00000000
      4.95000000	      0.00000000	     -0.00000000	      0.00000000	      0.00000000	      0.00000000	      0.00000000	      0.00000000	      0.00000000	      0.00000000	    -19.91935921	     71.66089630	   -372.85739136	   -126.97870278	  -1125.18263973	      0.00000000	      0.00000000	     -0.00000000	  -1615.55108698	     23.72380459	    -42.29342477	   -206.74755859	   -144.75840297	   -618.25787635	      0.00000000	      0.00000000	      0.00000000	   1016.37940905	      0.00000000	     -0.00000000	      0.00000000	      0.00000000	      0.00000000	      0.00000000	      0.00000000	      0.00000000	      0.00000000
      4.96000000	      0.00000000	     -0.00000000	      0.00000000	      0.00000000	      0.00000000	      0.00000000	      0.00000000	      0.00000000	      0.00000000	    -18.84947205	     66.55536652	   -336.58441162	   -123.37283853	  -1124.80179701	      0.00000000	      0.00000000	     -0.00000000	  -1556.38967221	     24.00358614	    -39.93427105	   -178.86732483	   -145.04563480	   -617.38770988	      0.00000000	      0.00000000	      0.00000000	   1354.77113591	      0.00000000	     -0.00000000	      0.00000000	      0.00000000	      0.00000000	      0.00000000	      0.00000000	      0.00000000	      0.00000000
      4.97000000	      0.00000000	     -0.00000000	      0.00000000	      0.00000000	      0.00000000	      0.00000000	      0.00000000	      0.00000000	      0.00000000	    -18.55397797	     61.31027603	   -304.34326172	   -120.38490281	  -1124.85211176	      0.00000000	      0.00000000	     -0.00000000	  -1389.56619367	     22.01342244	    -38.73560907	   -154.37677002	   -143.60331336	   -616.95123711	      0.00000000	      0.00000000	      0.00000000	   1808.68229643	      0.00000000	     -0.00000000	      0.00000000	      0.00000000	      0.00000000	      0.00000000	      0.00000000	      0.00000000	      0.00000000
